<svg width="1440" height="900" viewBox="0 0 1440 900" xmlns="http://www.w3.org/2000/svg">
  <defs>
    <linearGradient id="bgGrad" x1="0" y1="0" x2="1" y2="1">
      <stop offset="0%" stop-color="#F3F7FF"/>
      <stop offset="100%" stop-color="#E6F0FF"/>
    </linearGradient>
    <linearGradient id="cardGrad" x1="0" y1="0" x2="1" y2="1">
      <stop offset="0%" stop-color="#FFFFFF"/>
      <stop offset="100%" stop-color="#F9FBFF"/>
    </linearGradient>
  </defs>

  <rect width="1440" height="900" fill="url(#bgGrad)"/>
  <rect x="0" y="0" width="240" height="900" fill="#0F1B3D"/>
  <text x="32" y="56" fill="#FFFFFF" font-size="24" font-family="IBM Plex Sans, Segoe UI, sans-serif" font-weight="700">DB Hub</text>

  <rect x="24" y="100" width="192" height="42" rx="10" fill="#1F4B99"/>
  <text x="44" y="128" fill="#DDE9FF" font-size="15" font-family="IBM Plex Sans, sans-serif">Overview</text>
  <text x="44" y="178" fill="#8FA8D9" font-size="15" font-family="IBM Plex Sans, sans-serif">Connections</text>
  <text x="44" y="218" fill="#8FA8D9" font-size="15" font-family="IBM Plex Sans, sans-serif">Workbenches</text>
  <text x="44" y="258" fill="#8FA8D9" font-size="15" font-family="IBM Plex Sans, sans-serif">Audit Logs</text>

  <text x="280" y="64" fill="#1D2A4D" font-size="28" font-family="IBM Plex Sans, sans-serif" font-weight="700">Connection Overview</text>
  <text x="280" y="94" fill="#5B6B8A" font-size="15" font-family="IBM Plex Sans, sans-serif">统一查看数据库连接状态、运行负载与最近操作</text>

  <rect x="280" y="130" width="260" height="130" rx="16" fill="url(#cardGrad)" stroke="#CFDBF7"/>
  <text x="304" y="170" fill="#60729B" font-size="14" font-family="IBM Plex Sans, sans-serif">Active Connections</text>
  <text x="304" y="218" fill="#17356D" font-size="42" font-family="IBM Plex Sans, sans-serif" font-weight="700">128</text>
  <circle cx="495" cy="165" r="8" fill="#12B981"/>

  <rect x="560" y="130" width="260" height="130" rx="16" fill="url(#cardGrad)" stroke="#CFDBF7"/>
  <text x="584" y="170" fill="#60729B" font-size="14" font-family="IBM Plex Sans, sans-serif">Queries / Min</text>
  <text x="584" y="218" fill="#17356D" font-size="42" font-family="IBM Plex Sans, sans-serif" font-weight="700">3,492</text>
  <circle cx="775" cy="165" r="8" fill="#1E90FF"/>

  <rect x="840" y="130" width="260" height="130" rx="16" fill="url(#cardGrad)" stroke="#CFDBF7"/>
  <text x="864" y="170" fill="#60729B" font-size="14" font-family="IBM Plex Sans, sans-serif">Failed Tests</text>
  <text x="864" y="218" fill="#17356D" font-size="42" font-family="IBM Plex Sans, sans-serif" font-weight="700">7</text>
  <circle cx="1055" cy="165" r="8" fill="#F97316"/>

  <rect x="280" y="290" width="820" height="260" rx="18" fill="#FFFFFF" stroke="#CFDBF7"/>
  <text x="304" y="330" fill="#1F315A" font-size="18" font-family="IBM Plex Sans, sans-serif" font-weight="600">Traffic Trend (24h)</text>

  <polyline points="320,500 380,470 440,478 500,430 560,445 620,410 680,435 740,388 800,404 860,372 920,395 980,360 1040,380"
            fill="none" stroke="#1F67FF" stroke-width="4" stroke-linecap="round" stroke-linejoin="round"/>
  <line x1="320" y1="510" x2="1060" y2="510" stroke="#D9E3F8"/>

  <rect x="1120" y="130" width="292" height="420" rx="18" fill="#FFFFFF" stroke="#CFDBF7"/>
  <text x="1144" y="170" fill="#1F315A" font-size="18" font-family="IBM Plex Sans, sans-serif" font-weight="600">Top Databases</text>

  <rect x="1144" y="195" width="244" height="56" rx="12" fill="#F5F9FF"/>
  <text x="1162" y="228" fill="#18305C" font-size="14" font-family="IBM Plex Sans, sans-serif">PostgreSQL / orders-prod</text>

  <rect x="1144" y="266" width="244" height="56" rx="12" fill="#F5F9FF"/>
  <text x="1162" y="299" fill="#18305C" font-size="14" font-family="IBM Plex Sans, sans-serif">MySQL / crm-report</text>

  <rect x="1144" y="337" width="244" height="56" rx="12" fill="#F5F9FF"/>
  <text x="1162" y="370" fill="#18305C" font-size="14" font-family="IBM Plex Sans, sans-serif">SQLServer / billing-bi</text>

  <rect x="280" y="580" width="1132" height="250" rx="18" fill="#FFFFFF" stroke="#CFDBF7"/>
  <text x="304" y="620" fill="#1F315A" font-size="18" font-family="IBM Plex Sans, sans-serif" font-weight="600">Recent Activities</text>

  <line x1="304" y1="646" x2="1388" y2="646" stroke="#E2EAFB"/>
  <text x="304" y="685" fill="#2B4069" font-size="14" font-family="IBM Plex Sans, sans-serif">17:33  admin  Tested connection: orders-prod (OK, 38ms)</text>
  <text x="304" y="720" fill="#2B4069" font-size="14" font-family="IBM Plex Sans, sans-serif">17:29  dev01  Executed query in workbench (rows: 1000)</text>
  <text x="304" y="755" fill="#2B4069" font-size="14" font-family="IBM Plex Sans, sans-serif">17:20  system  Pool scaled for mysql cluster (to 64)</text>
  <text x="304" y="790" fill="#2B4069" font-size="14" font-family="IBM Plex Sans, sans-serif">17:14  admin  Updated datasource credential policy</text>
</svg>
